<svg xmlns="http://www.w3.org/2000/svg" xmlns:xlink="http://www.w3.org/1999/xlink" viewBox="0 0 87.94 38.6"><defs><mask id="mask" x="0" y="0" width="87.94" height="38.6" maskUnits="userSpaceOnUse"><g id="mask-3"><polygon id="path-2" points="0 0 87.94 0 87.94 38.6 0 38.6 0 0" fill="#fff" fill-rule="evenodd"/></g></mask><mask id="mask-2" x="0" y="0.11" width="87.94" height="38.6" maskUnits="userSpaceOnUse"><g id="mask-5"><polygon id="path-4" points="0 38.71 87.94 38.71 87.94 0.11 0 0.11 0 38.71" fill="#fff" fill-rule="evenodd"/></g></mask></defs><g id="Layer_2" data-name="Layer 2"><g id="Layer_1-2" data-name="Layer 1"><g id="Symbols"><g id="logo_hungerstation-shadow" data-name="logo/hungerstation-shadow"><g id="hungerstation"><g id="Group-3"><g id="Fill-1-Clipped"><g mask="url(#mask)"><path id="Fill-1" d="M87.71,19.32a2.9,2.9,0,0,0-.13-2.55L85.65,13.3a7.28,7.28,0,0,0,.65-.92,7.48,7.48,0,0,0,1.11-4A7.8,7.8,0,0,0,85,2.6,8.35,8.35,0,0,0,79.14.35H61.8A2.89,2.89,0,0,0,59.18,2,10.26,10.26,0,0,0,56.39.58,10.69,10.69,0,0,0,51.05.16a10.51,10.51,0,0,0-5,2.14A2.9,2.9,0,0,0,43.35.35h-3.8A2.91,2.91,0,0,0,36.94,2l-.28-.41A2.9,2.9,0,0,0,34.29.35H25.22a2.89,2.89,0,0,0-2.09.89A2.87,2.87,0,0,0,21,.35H17.23l-2.32,0H11.14a2.89,2.89,0,0,0-2.09.89A2.89,2.89,0,0,0,7,.39H3.17a2.9,2.9,0,0,0-2.9,2.9V18.13A2.91,2.91,0,0,0,1.82,20.7,7.23,7.23,0,0,0,.64,24.77a6.84,6.84,0,0,0,1.42,4.36l-.62.36A2.91,2.91,0,0,0,.17,33,8.13,8.13,0,0,0,3.5,37.14,10,10,0,0,0,9,38.6a9.24,9.24,0,0,0,5.91-1.86,7,7,0,0,0,1.38-1.45v.1a2.89,2.89,0,0,0,2.9,2.89l5.6,0H29a2.9,2.9,0,0,0,2.78-2.07l.2-.61.44-.11.31.63a3.06,3.06,0,0,0,2.75,2.14l3.9.09,2.28,0,3.88-.06a2.9,2.9,0,0,0,2.57-1.54,2.88,2.88,0,0,0,2.56,1.54h3.82a2.88,2.88,0,0,0,2.75-2,11,11,0,0,0,13.14.29A2.91,2.91,0,0,0,73,38.28h3.82a2.89,2.89,0,0,0,2.61-1.63l.28.4a2.9,2.9,0,0,0,2.37,1.23h3a2.89,2.89,0,0,0,2.89-2.89V20.46a2.9,2.9,0,0,0-.23-1.14" fill="#ebebeb"/></g></g></g><path id="Fill-4" d="M8.1,35.51a7.12,7.12,0,0,1-3.93-1A5.31,5.31,0,0,1,2,31.8l3.26-1.9a3,3,0,0,0,2.94,2c1.17,0,1.75-.34,1.75-1,0-.43-.33-.79-1-1.05-.28-.12-.9-.32-1.87-.6a8.25,8.25,0,0,1-3.24-1.67,3.86,3.86,0,0,1-1.19-3,4.18,4.18,0,0,1,1.48-3.34A5.43,5.43,0,0,1,7.82,20a6.36,6.36,0,0,1,3.33.87,5.62,5.62,0,0,1,2.21,2.54l-3.19,1.87a2.4,2.4,0,0,0-2.33-1.66,1.6,1.6,0,0,0-1,.28.85.85,0,0,0-.35.71,1,1,0,0,0,.52.83,8.39,8.39,0,0,0,2,.8l1.74.62a6.93,6.93,0,0,1,1.46.77,3.09,3.09,0,0,1,1.17,1.34,4.39,4.39,0,0,1,.39,1.92,4.13,4.13,0,0,1-1.56,3.43A6.39,6.39,0,0,1,8.1,35.51" fill="#bdbec4"/><polygon id="Fill-6" points="26.19 19.95 26.19 23.64 22.5 23.64 22.5 34.87 18.69 34.87 18.69 23.64 15 23.64 15 19.95 26.19 19.95" fill="#bdbec4"/><polygon id="Fill-8" points="49.19 19.95 49.19 23.64 45.51 23.64 45.51 34.87 41.69 34.87 41.69 23.64 38 23.64 38 19.95 49.19 19.95" fill="#bdbec4"/><g id="Fill-10-Clipped"><g mask="url(#mask-2)"><polygon id="Fill-10" points="50 35.03 53.82 35.03 53.82 20.11 50 20.11 50 35.03" fill="#bdbec4"/></g></g><g id="Fill-12-Clipped"><g mask="url(#mask-2)"><path id="Fill-12" d="M61,30.8a4,4,0,0,0,6.9-2.91A4,4,0,1,0,61,30.8m8.43,2.62a8,8,0,0,1-11.11,0A7.49,7.49,0,0,1,56,27.89a7.49,7.49,0,0,1,2.27-5.53,8,8,0,0,1,11.11,0,7.49,7.49,0,0,1,2.27,5.53,7.49,7.49,0,0,1-2.27,5.53" fill="#bdbec4"/></g></g><g id="Fill-13-Clipped"><g mask="url(#mask-2)"><polygon id="Fill-13" points="81.23 20.11 85.02 20.11 85.02 35.03 82.08 35.03 76.82 27.53 76.82 35.03 73 35.03 73 20.11 75.96 20.11 81.23 27.61 81.23 20.11" fill="#bdbec4"/></g></g><g id="Fill-14-Clipped"><g mask="url(#mask-2)"><path id="Fill-14" d="M32.44,28.3l-2.33.39,1.21-4.12ZM28.8,20.11,24,35.19h4.17l.55-1.84L29,32.29l4.42-.79.64,2,.58,1.73h4l-5-15.08Z" fill="#bdbec4"/></g></g><g id="Fill-15-Clipped"><g mask="url(#mask-2)"><polygon id="Fill-15" points="10.97 8.65 6.8 9.39 6.8 8.22 6.8 3.11 3 3.11 3 17.95 6.8 17.95 6.8 12.81 10.97 12.06 10.97 12.64 10.97 17.95 14.75 17.95 14.75 3.11 10.97 3.11 10.97 8.65" fill="#bdbec4"/></g></g><g id="Fill-16-Clipped"><g mask="url(#mask-2)"><path id="Fill-16" d="M27.16,16.93a6.28,6.28,0,0,1-4.25,1.43,6.29,6.29,0,0,1-4.26-1.43A4.77,4.77,0,0,1,17,13.13v-10h3.82v9.66c0,1.25.69,1.88,2.09,1.88S25,14,25,12.77V3.11h3.82v10a4.78,4.78,0,0,1-1.66,3.8" fill="#bdbec4"/></g></g><g id="Fill-17-Clipped"><g mask="url(#mask-2)"><polygon id="Fill-17" points="39.23 3.11 43.03 3.11 43.03 18.04 40.09 18.04 34.82 10.53 34.82 18.04 31 18.04 31 3.11 33.96 3.11 39.23 10.62 39.23 3.11" fill="#bdbec4"/></g></g><g id="Fill-18-Clipped"><path id="Fill-18" d="M60.13,8.6l.25,1.49a7.17,7.17,0,0,1-1.17,5.59,7.24,7.24,0,0,1-4.94,2.87,7.78,7.78,0,0,1-6-1.27,7.49,7.49,0,0,1-3.12-5.09,7.54,7.54,0,0,1,1.31-5.83,7.47,7.47,0,0,1,5.1-3.13,7.87,7.87,0,0,1,3.93.3,7.1,7.1,0,0,1,3.09,2l-2.9,2.36A3.06,3.06,0,0,0,54.18,7a4.3,4.3,0,0,0-2-.11,3.87,3.87,0,0,0-2.67,1.61,4,4,0,0,0-.64,3.09A4,4,0,0,0,53.75,15a3.36,3.36,0,0,0,3.07-2.5l-3.58.59L52.7,9.82Z" fill="#bdbec4"/></g><g id="Fill-19-Clipped"><polygon id="Fill-19" points="65.55 15.08 71.33 15.08 71.33 18.66 61.73 18.66 61.73 3.74 71.22 3.74 71.22 7.3 65.55 7.3 65.55 9.37 70.69 9.37 70.69 12.88 65.55 12.88 65.55 15.08" fill="#bdbec4"/></g><g id="Fill-20-Clipped"><path id="Fill-20" d="M76.71,7.25V11l2.05-.25A2.14,2.14,0,0,0,80,10.16a1.74,1.74,0,0,0,.44-1.22A1.74,1.74,0,0,0,80,7.72a1.55,1.55,0,0,0-1.16-.47Zm4,11.41-2.6-4.82-1.37.23v4.59H72.9V3.74h6A5.36,5.36,0,0,1,82.7,5.2a4.85,4.85,0,0,1,1.54,3.7,4.7,4.7,0,0,1-.68,2.46,5,5,0,0,1-1.86,1.78l3.07,5.52Z" fill="#bdbec4"/></g></g></g></g></g></g></svg>