<svg id="Layer_1" data-name="Layer 1" xmlns="http://www.w3.org/2000/svg" xmlns:xlink="http://www.w3.org/1999/xlink" viewBox="0 0 307.71 430.59"><defs><linearGradient id="linear-gradient" x1="300.7" y1="461.04" x2="300.7" y2="358.41" gradientUnits="userSpaceOnUse"><stop offset="0" stop-opacity="0.2"/><stop offset="1" stop-opacity="0"/></linearGradient></defs><path d="M176,460a15.6,15.6,0,0,1-6.48-1.11c-1.6-.75-2.13-1.63-1.6-2.66a3.9,3.9,0,0,1,1.71-1.54l145.19-84.2H183.73a18.91,18.91,0,0,1-7.76-1.28q-2.76-1.29-1.79-3.18l11.09-21.6q1-1.89,5-3.17A29.9,29.9,0,0,1,199.4,340H423.84q5.46,0,8,1.29t1.55,3.17l-9.68,18.86a13.89,13.89,0,0,1-4,4.72,46.38,46.38,0,0,1-5.77,3.68L268.64,456.08q-2.26.85-6.92,2.4T248.86,460Z" transform="translate(-125.94 -43.55)" fill="url(#linear-gradient)"/><path d="M175.75,70.29a.92.92,0,0,1-.65-.27.88.88,0,0,1-.29-.66V46a.9.9,0,0,1,.29-.67.92.92,0,0,1,.65-.27h9.87a14.73,14.73,0,0,1,6,1.14,9.12,9.12,0,0,1,4,3.33,10,10,0,0,1,1.59,5.4c.05,1,.07,1.94.07,2.73s0,1.7-.07,2.7A11.27,11.27,0,0,1,195.75,66a8.32,8.32,0,0,1-3.91,3.26,15.48,15.48,0,0,1-6.05,1.06Zm6.81-6.12h3.06a4.68,4.68,0,0,0,2-.39,3,3,0,0,0,1.3-1.24,4.74,4.74,0,0,0,.5-2.18c0-.7,0-1.32,0-1.87s0-1.11,0-1.66,0-1.16,0-1.84a3.8,3.8,0,0,0-1.13-2.88,4.3,4.3,0,0,0-2.86-.9h-2.88Z" transform="translate(-125.94 -43.55)" fill="#582a16"/><path d="M209.84,70.65a10.42,10.42,0,0,1-7.14-2.32c-1.77-1.55-2.67-3.92-2.72-7.11V60.5a10.72,10.72,0,0,1,1.31-5.06,7.88,7.88,0,0,1,3.39-3.15,11.41,11.41,0,0,1,5.13-1.08,10.48,10.48,0,0,1,5.49,1.32A8.42,8.42,0,0,1,218.56,56a11,11,0,0,1,1.08,4.88v1a.88.88,0,0,1-.29.64.92.92,0,0,1-.69.29H207.58v.22a4.56,4.56,0,0,0,.23,1.53,2.1,2.1,0,0,0,.74,1,2,2,0,0,0,1.22.38,2,2,0,0,0,.79-.14,2.33,2.33,0,0,0,.58-.38,5.77,5.77,0,0,0,.43-.45,2.13,2.13,0,0,1,.52-.42,1.65,1.65,0,0,1,.63-.09h5.66a.8.8,0,0,1,.55.22.6.6,0,0,1,.2.54,3.53,3.53,0,0,1-.61,1.57,7.26,7.26,0,0,1-1.71,1.78,10.06,10.06,0,0,1-2.9,1.44A13.25,13.25,0,0,1,209.84,70.65Zm-2.26-11.84H212v-.07a5,5,0,0,0-.25-1.66,2,2,0,0,0-.76-1,2.11,2.11,0,0,0-1.22-.35,2.15,2.15,0,0,0-1.23.35,2,2,0,0,0-.75,1,4.79,4.79,0,0,0-.25,1.66Z" transform="translate(-125.94 -43.55)" fill="#582a16"/><path d="M223.52,70.29a.92.92,0,0,1-.93-.93V45.67a.92.92,0,0,1,.27-.67.9.9,0,0,1,.66-.27h5.37a.9.9,0,0,1,.64.27.87.87,0,0,1,.29.67V69.36a.84.84,0,0,1-.29.66.9.9,0,0,1-.64.27Z" transform="translate(-125.94 -43.55)" fill="#582a16"/><path d="M234.5,70.29a.92.92,0,0,1-.93-.93V52.51a.92.92,0,0,1,.27-.67.9.9,0,0,1,.66-.27h5.33a1,1,0,0,1,.68.27.87.87,0,0,1,.29.67V69.36a.84.84,0,0,1-.29.66,1,1,0,0,1-.68.27Zm.07-21.06a.92.92,0,0,1-.93-.93V44.52a1,1,0,0,1,.27-.69.87.87,0,0,1,.66-.28h5.19a.93.93,0,0,1,.68.28,1,1,0,0,1,.29.69V48.3a.88.88,0,0,1-.29.66,1,1,0,0,1-.68.27Z" transform="translate(-125.94 -43.55)" fill="#582a16"/><path d="M251.28,70.29a1,1,0,0,1-.79-.28,3.69,3.69,0,0,1-.44-.62l-6.87-16.7a1,1,0,0,1,0-.29.87.87,0,0,1,.83-.83h5.11a1,1,0,0,1,.76.27,1.78,1.78,0,0,1,.36.53l3.45,9.75,3.5-9.75a1.78,1.78,0,0,1,.36-.53,1,1,0,0,1,.75-.27h5.08a.76.76,0,0,1,.59.26.8.8,0,0,1,.24.57,1.45,1.45,0,0,1,0,.29l-6.84,16.7a2.38,2.38,0,0,1-.41.62,1.06,1.06,0,0,1-.81.28Z" transform="translate(-125.94 -43.55)" fill="#582a16"/><path d="M275,70.65a10.42,10.42,0,0,1-7.14-2.32c-1.77-1.55-2.67-3.92-2.72-7.11V60.5a10.72,10.72,0,0,1,1.31-5.06,7.88,7.88,0,0,1,3.39-3.15A11.41,11.41,0,0,1,275,51.21a10.48,10.48,0,0,1,5.49,1.32A8.33,8.33,0,0,1,283.71,56a10.83,10.83,0,0,1,1.08,4.88v1a.87.87,0,0,1-.28.64.92.92,0,0,1-.69.29H272.73v.22a4.55,4.55,0,0,0,.24,1.53,2.1,2.1,0,0,0,.74,1,2,2,0,0,0,1.22.38,2,2,0,0,0,.79-.14,2.33,2.33,0,0,0,.58-.38,5.77,5.77,0,0,0,.43-.45,2.13,2.13,0,0,1,.52-.42,1.61,1.61,0,0,1,.63-.09h5.65a.8.8,0,0,1,.56.22.6.6,0,0,1,.2.54,3.53,3.53,0,0,1-.61,1.57A7.26,7.26,0,0,1,282,68.64a10.06,10.06,0,0,1-2.9,1.44A13.25,13.25,0,0,1,275,70.65Zm-2.27-11.84h4.47v-.07a5,5,0,0,0-.25-1.66,2,2,0,0,0-.76-1,2.11,2.11,0,0,0-1.22-.35,2.15,2.15,0,0,0-1.23.35,2,2,0,0,0-.75,1,4.78,4.78,0,0,0-.26,1.66Z" transform="translate(-125.94 -43.55)" fill="#582a16"/><path d="M288.68,70.29a.92.92,0,0,1-.93-.93V52.51a.92.92,0,0,1,.27-.67.9.9,0,0,1,.66-.27h5.22a.9.9,0,0,1,.67.27.92.92,0,0,1,.27.67v1.33a8.37,8.37,0,0,1,2.46-1.65,7.46,7.46,0,0,1,3.05-.62H302a1,1,0,0,1,.68.27.9.9,0,0,1,.29.67v4.64a.88.88,0,0,1-.29.67,1,1,0,0,1-.68.27h-4a2.38,2.38,0,0,0-2.66,2.66v8.61a.92.92,0,0,1-.94.93Z" transform="translate(-125.94 -43.55)" fill="#582a16"/><path d="M308.84,77.13a.83.83,0,0,1-.56-.21.74.74,0,0,1-.23-.54.62.62,0,0,1,0-.18c0-.07,0-.16.05-.25L311,69.14l-6.95-16.38a1.41,1.41,0,0,1-.07-.36,1.19,1.19,0,0,1,.31-.57.73.73,0,0,1,.56-.26h5.07a1,1,0,0,1,.78.27,2.14,2.14,0,0,1,.34.53l3.53,9.36,3.63-9.36a1.9,1.9,0,0,1,.4-.54,1,1,0,0,1,.75-.26h5a.75.75,0,0,1,.54.24.69.69,0,0,1,.26.52,1.31,1.31,0,0,1-.08.43L315,76.34a1.84,1.84,0,0,1-.41.54,1.09,1.09,0,0,1-.78.25Z" transform="translate(-125.94 -43.55)" fill="#582a16"/><path d="M219.11,113.49a.94.94,0,0,1-.65-.27.87.87,0,0,1-.28-.66V89.23a.89.89,0,0,1,.28-.67.94.94,0,0,1,.65-.27h17.35a1,1,0,0,1,.69.27.9.9,0,0,1,.29.67V93.8a.91.91,0,0,1-.29.65.94.94,0,0,1-.69.29H225.77v4h10a1,1,0,0,1,.69.27.88.88,0,0,1,.29.66v4.54a.9.9,0,0,1-.29.67,1,1,0,0,1-.69.27h-10v7.45a.92.92,0,0,1-.93.93Z" transform="translate(-125.94 -43.55)" fill="#582a16"/><path d="M249.42,113.85a10.42,10.42,0,0,1-7.14-2.32c-1.77-1.55-2.67-3.92-2.72-7.11v-.72a10.72,10.72,0,0,1,1.31-5.06,7.94,7.94,0,0,1,3.39-3.15,11.41,11.41,0,0,1,5.13-1.08,10.43,10.43,0,0,1,5.49,1.32,8.35,8.35,0,0,1,3.26,3.49,10.83,10.83,0,0,1,1.08,4.88v1a.88.88,0,0,1-.29.64.91.91,0,0,1-.69.29H247.16v.22a4.56,4.56,0,0,0,.23,1.53,2.16,2.16,0,0,0,.74,1,2,2,0,0,0,1.22.38,2,2,0,0,0,.79-.14,2.33,2.33,0,0,0,.58-.38,5.77,5.77,0,0,0,.43-.45,2.13,2.13,0,0,1,.52-.42,1.68,1.68,0,0,1,.63-.09H258a.8.8,0,0,1,.55.22.58.58,0,0,1,.2.54,3.53,3.53,0,0,1-.61,1.57,6.91,6.91,0,0,1-1.71,1.78,10.06,10.06,0,0,1-2.9,1.44A13.2,13.2,0,0,1,249.42,113.85ZM247.16,102h4.46v-.07a4.79,4.79,0,0,0-.25-1.66,2,2,0,0,0-.76-1,2.09,2.09,0,0,0-1.22-.35,2.15,2.15,0,0,0-1.23.35,2.06,2.06,0,0,0-.75,1,4.79,4.79,0,0,0-.25,1.66Z" transform="translate(-125.94 -43.55)" fill="#582a16"/><path d="M271.35,113.85a10.46,10.46,0,0,1-7.15-2.32q-2.64-2.32-2.72-7.11v-.72a10.72,10.72,0,0,1,1.32-5.06,7.86,7.86,0,0,1,3.38-3.15,11.41,11.41,0,0,1,5.13-1.08,10.43,10.43,0,0,1,5.49,1.32,8.35,8.35,0,0,1,3.26,3.49,10.83,10.83,0,0,1,1.08,4.88v1a.88.88,0,0,1-.29.64.9.9,0,0,1-.68.29H269.08v.22a4.82,4.82,0,0,0,.23,1.53,2.16,2.16,0,0,0,.74,1,2,2,0,0,0,1.23.38,2.07,2.07,0,0,0,.79-.14,2.27,2.27,0,0,0,.57-.38,6,6,0,0,0,.44-.45,2,2,0,0,1,.52-.42,1.61,1.61,0,0,1,.63-.09h5.65a.82.82,0,0,1,.56.22.63.63,0,0,1,.2.54,3.57,3.57,0,0,1-.62,1.57,6.91,6.91,0,0,1-1.71,1.78,10,10,0,0,1-2.89,1.44A13.29,13.29,0,0,1,271.35,113.85ZM269.08,102h4.46v-.07a4.79,4.79,0,0,0-.25-1.66,2.06,2.06,0,0,0-.75-1,2.15,2.15,0,0,0-1.23-.35,2.09,2.09,0,0,0-1.22.35,2,2,0,0,0-.76,1,4.79,4.79,0,0,0-.25,1.66Z" transform="translate(-125.94 -43.55)" fill="#582a16"/><path d="M187,474.14a10.11,10.11,0,0,1-10-10,8.85,8.85,0,0,1,.92-4.09l102-223.53H148.76a11.68,11.68,0,0,1-11.84-11.84V167.3a11.68,11.68,0,0,1,11.84-11.84H373.2a11.26,11.26,0,0,1,8.65,3.42A11.87,11.87,0,0,1,385,167.3v50.08a43.37,43.37,0,0,1-1.59,12.52,62.83,62.83,0,0,1-3.87,9.78l-102,224Q275.77,466,271.9,470t-12.06,4.1Z" transform="translate(-125.94 -43.55)" fill="#007eef"/><path d="M176,460a10.11,10.11,0,0,1-10-10,9,9,0,0,1,.91-4.1l102-223.53H137.78a11.66,11.66,0,0,1-11.84-11.84V153.18a11.66,11.66,0,0,1,11.84-11.83H362.22a11.25,11.25,0,0,1,8.65,3.41,11.92,11.92,0,0,1,3.19,8.42v50.08a43.35,43.35,0,0,1-1.6,12.52,63,63,0,0,1-3.87,9.79l-102,224q-1.83,2.28-5.69,6.37c-2.59,2.74-6.6,4.1-12.07,4.1Z" transform="translate(-125.94 -43.55)" fill="#f20023"/><path d="M164.2,197.35a22.89,22.89,0,0,1-8.93-1.51,12.25,12.25,0,0,1-5.31-3.93,9.23,9.23,0,0,1-1.87-5.15,1.06,1.06,0,0,1,1.07-1.07h8.13a2.35,2.35,0,0,1,1.13.23,5.32,5.32,0,0,1,.87.64,6.66,6.66,0,0,0,1.07,1.05,4.71,4.71,0,0,0,1.59.77,10,10,0,0,0,5.88-.36,2,2,0,0,0,1.28-1.77,1.77,1.77,0,0,0-.69-1.43,6.88,6.88,0,0,0-2.33-1c-1.09-.31-2.57-.63-4.45-1a27.81,27.81,0,0,1-6.8-2,10.23,10.23,0,0,1-4.37-3.53,9.55,9.55,0,0,1-1.51-5.5,9.72,9.72,0,0,1,1.86-5.88,12.37,12.37,0,0,1,5.22-4,19.78,19.78,0,0,1,7.8-1.43,20,20,0,0,1,6.52,1,15.67,15.67,0,0,1,4.78,2.53,11.93,11.93,0,0,1,3,3.35,7.4,7.4,0,0,1,1.07,3.43,1.09,1.09,0,0,1-.33.79,1,1,0,0,1-.74.33h-8.54a2.21,2.21,0,0,1-1-.2,2.72,2.72,0,0,1-.82-.67,2.57,2.57,0,0,0-1.28-1.27,5.31,5.31,0,0,0-2.61-.57,5,5,0,0,0-2.66.59,1.91,1.91,0,0,0-.92,1.71,1.81,1.81,0,0,0,.56,1.33,4.84,4.84,0,0,0,2,1c1,.29,2.28.61,4,1a31.18,31.18,0,0,1,7.85,2,9.9,9.9,0,0,1,3.65,15.09,13.16,13.16,0,0,1-5.75,4A23.15,23.15,0,0,1,164.2,197.35Z" transform="translate(-125.94 -43.55)" fill="#fff"/><path d="M186.14,196.84a1.33,1.33,0,0,1-.92-.38,1.23,1.23,0,0,1-.41-1V162.37a1.24,1.24,0,0,1,.41-1,1.33,1.33,0,0,1,.92-.38h14.57q7,0,10.92,3.17a10.71,10.71,0,0,1,4,8.85,10.87,10.87,0,0,1-1.64,6.08,11.56,11.56,0,0,1-4.3,3.94l6.65,12.07a1.33,1.33,0,0,1,.16.56,1.16,1.16,0,0,1-.31.8,1,1,0,0,1-.77.33h-8.64a2.08,2.08,0,0,1-1.49-.49,2.5,2.5,0,0,1-.66-.89l-5.11-10.54H195.8v10.59a1.27,1.27,0,0,1-.38,1,1.31,1.31,0,0,1-.95.38Zm9.66-20.36h4.86a3.35,3.35,0,0,0,2.66-1,3.64,3.64,0,0,0,.87-2.48,4.08,4.08,0,0,0-.84-2.61,3.21,3.21,0,0,0-2.69-1.08H195.8Z" transform="translate(-125.94 -43.55)" fill="#fff"/></svg>