<svg id="Layer_1" data-name="Layer 1" xmlns="http://www.w3.org/2000/svg" xmlns:xlink="http://www.w3.org/1999/xlink" viewBox="0 0 342.89 259.71"><defs><linearGradient id="linear-gradient" x1="152.55" y1="125.43" x2="152.55" y2="325.41" gradientUnits="userSpaceOnUse"><stop offset="0" stop-color="#3f3026"/><stop offset="0.35" stop-color="#786556"/><stop offset="0.68" stop-color="#43342a"/><stop offset="1" stop-color="#786556"/></linearGradient></defs><path d="M84.24,306.53a5.47,5.47,0,0,1-4-1.67,5.8,5.8,0,0,1-1.66-4.29V146.49a5.8,5.8,0,0,1,1.66-4.29,5.45,5.45,0,0,1,4-1.67H191.64a5.77,5.77,0,0,1,4.26,1.67,5.83,5.83,0,0,1,1.65,4.29v19.08a5.83,5.83,0,0,1-1.65,4.29,5.77,5.77,0,0,1-4.26,1.67H114.55v37h71.12a5.72,5.72,0,0,1,4.23,1.66,5.8,5.8,0,0,1,1.65,4.27v17.13a5.93,5.93,0,0,1-1.65,4.16,5.48,5.48,0,0,1-4.23,1.78H114.55v38h79.08a5.69,5.69,0,0,1,5.92,6v19.08a5.69,5.69,0,0,1-5.92,6Z" transform="translate(-78.55 -120.14)" fill="#fff"/><path d="M230.28,164.53a5.55,5.55,0,0,1-4.06-1.66,5.74,5.74,0,0,1-1.67-4.26V139.45a5.9,5.9,0,0,1,1.67-4.15,5.39,5.39,0,0,1,4.06-1.77h25.31a5.75,5.75,0,0,1,4.17,1.77,5.65,5.65,0,0,1,1.79,4.15v19.16a5.51,5.51,0,0,1-1.79,4.26,5.93,5.93,0,0,1-4.17,1.66Zm.11,142a5.75,5.75,0,0,1-4.09-1.66,5.61,5.61,0,0,1-1.75-4.25V189.44a5.61,5.61,0,0,1,1.75-4.25,5.75,5.75,0,0,1,4.09-1.66H254a5.35,5.35,0,0,1,4,1.66,5.78,5.78,0,0,1,1.63,4.25V300.62a5.78,5.78,0,0,1-1.63,4.25,5.35,5.35,0,0,1-4,1.66Z" transform="translate(-78.55 -120.14)" fill="#fff"/><path d="M335.72,308.48a53.66,53.66,0,0,1-21.06-3.9,41.59,41.59,0,0,1-15.61-11.36,50.68,50.68,0,0,1-9.7-17.74,91.43,91.43,0,0,1-4-22.84c-.16-3-.23-5.71-.23-8.16s.07-5.08.23-7.92a79.77,79.77,0,0,1,3.91-22.48,53.64,53.64,0,0,1,9.7-17.63,42.61,42.61,0,0,1,15.61-11.59,51.78,51.78,0,0,1,21.18-4.14q12.3,0,21.06,4.14c5.83,2.76,14.77,10.53,14.77,10.53V144.45a5.77,5.77,0,0,1,1.65-4.26,5.7,5.7,0,0,1,4.24-1.66h24.23a5.72,5.72,0,0,1,4.24,1.66,5.8,5.8,0,0,1,1.64,4.26V300.61a5.8,5.8,0,0,1-1.64,4.26,5.72,5.72,0,0,1-4.24,1.66H378.78a13.35,13.35,0,0,1-4-2.07,4.21,4.21,0,0,1-1.21-4.26v-8a54.86,54.86,0,0,1-15.35,11.71Q349.2,308.49,335.72,308.48Zm10.88-28.39q8.76,0,14.08-4a23.6,23.6,0,0,0,7.81-10.18,38.68,38.68,0,0,0,2.72-13.25,87.17,87.17,0,0,0,.47-9,80.64,80.64,0,0,0-.47-8.75,31.69,31.69,0,0,0-3-12.42,24.63,24.63,0,0,0-7.92-9.58q-5.22-3.79-13.73-3.79-9,0-14.19,3.9a21.51,21.51,0,0,0-7.46,10.3,51.7,51.7,0,0,0-2.72,14,115.66,115.66,0,0,0,0,14.66,51.55,51.55,0,0,0,2.72,14,21.51,21.51,0,0,0,7.46,10.3Q337.6,280.09,346.6,280.09Z" transform="translate(-78.55 -120.14)" fill="#fff"/><path d="M82.64,378.53a2,2,0,0,1-1.48-.61,2.16,2.16,0,0,1-.61-1.57V319.71a2.16,2.16,0,0,1,.61-1.57,2,2,0,0,1,1.48-.61h22q8.72,0,14.56,2.75a19.86,19.86,0,0,1,8.93,8,26.67,26.67,0,0,1,3.27,13c.11,2.56.17,4.79.17,6.71s-.06,4.13-.17,6.62q-.27,8.12-3.23,13.42a18.11,18.11,0,0,1-8.67,7.89q-5.7,2.57-14.42,2.57Zm11.91-11h10.11a17,17,0,0,0,7-1.25,8.43,8.43,0,0,0,4.1-4.06,17.39,17.39,0,0,0,1.47-7.3c0-1.67.1-3.17.13-4.49s0-2.65,0-4-.08-2.79-.13-4.41q-.18-6.48-3.33-9.5t-9.71-3H94.55Z" transform="translate(-78.55 -120.14)" fill="#fff"/><path d="M160.72,379.86q-9.58,0-15.21-5.73t-6-16.66v-3.56a26.12,26.12,0,0,1,3-11.55,18.13,18.13,0,0,1,7.55-7.35,24.14,24.14,0,0,1,11.37-2.56q7.38,0,12.24,3a19,19,0,0,1,7.33,8.13,26.93,26.93,0,0,1,2.47,11.81v2a2.14,2.14,0,0,1-.6,1.51,2.07,2.07,0,0,1-1.57.65H152.55v.63a15.9,15.9,0,0,0,1,5.24,8.82,8.82,0,0,0,2.71,3.8,6.76,6.76,0,0,0,4.38,1.43A7.34,7.34,0,0,0,164,370a9,9,0,0,0,2.21-1.52,10,10,0,0,0,1.29-1.48,4.29,4.29,0,0,1,1.21-1.21,3.22,3.22,0,0,1,1.37-.22h8.84a1.76,1.76,0,0,1,1.29.54,1.57,1.57,0,0,1,.46,1.34,8.24,8.24,0,0,1-1.38,3.63,16.62,16.62,0,0,1-3.79,4.12,21.48,21.48,0,0,1-6.21,3.35A24.89,24.89,0,0,1,160.72,379.86Zm-8.17-28.33h17v-.26a13.15,13.15,0,0,0-1-5.32,8.19,8.19,0,0,0-2.92-3.59,8.09,8.09,0,0,0-4.62-1.3,7.9,7.9,0,0,0-4.58,1.3,8.23,8.23,0,0,0-2.87,3.59,13.15,13.15,0,0,0-1,5.32Z" transform="translate(-78.55 -120.14)" fill="#fff"/><path d="M209.5,378.69a29.35,29.35,0,0,1-9.1-1.24,20.45,20.45,0,0,1-6.16-3,14.39,14.39,0,0,1-3.5-3.63,7.07,7.07,0,0,1-1.24-3.12,1.71,1.71,0,0,1,.6-1.54,2.07,2.07,0,0,1,1.36-.6h8.29a1.46,1.46,0,0,1,.56.09,1.94,1.94,0,0,1,.56.42c.74.52,1.49,1.1,2.26,1.75a10.37,10.37,0,0,0,2.78,1.67,10,10,0,0,0,3.93.69,9,9,0,0,0,4.74-1.16,3.62,3.62,0,0,0,1.93-3.29,3.86,3.86,0,0,0-.86-2.56,7.57,7.57,0,0,0-3.33-1.88,64.62,64.62,0,0,0-7.35-1.88,31.74,31.74,0,0,1-7.86-2.74,12.4,12.4,0,0,1-4.88-4.31,11.7,11.7,0,0,1-1.62-6.29,11.27,11.27,0,0,1,2.09-6.41,15.6,15.6,0,0,1,6.2-5.08,23.24,23.24,0,0,1,10.26-2,26.62,26.62,0,0,1,8.24,1.15,20.82,20.82,0,0,1,5.94,2.91,15,15,0,0,1,3.64,3.59,6.84,6.84,0,0,1,1.32,3.2,1.82,1.82,0,0,1-.51,1.54,1.89,1.89,0,0,1-1.37.6h-7.61a1.7,1.7,0,0,1-.76-.17,2.18,2.18,0,0,1-.6-.43,13,13,0,0,1-2.1-1.54,10.91,10.91,0,0,0-2.52-1.62,8.81,8.81,0,0,0-3.76-.68,6.5,6.5,0,0,0-4.23,1.23,3.9,3.9,0,0,0-1.5,3.13,3.67,3.67,0,0,0,.77,2.22,6.93,6.93,0,0,0,3.12,1.88,50.62,50.62,0,0,0,7.31,1.79,27.35,27.35,0,0,1,9.23,3.08,12.84,12.84,0,0,1,4.87,4.74,12,12,0,0,1,1.46,5.77,11.59,11.59,0,0,1-2.35,7.14,15.21,15.21,0,0,1-7,4.87A31.9,31.9,0,0,1,209.5,378.69Z" transform="translate(-78.55 -120.14)" fill="#fff"/><path d="M256.47,378.69a29.35,29.35,0,0,1-9.1-1.24,20.45,20.45,0,0,1-6.16-3,14.39,14.39,0,0,1-3.5-3.63,7.07,7.07,0,0,1-1.24-3.12,1.71,1.71,0,0,1,.6-1.54,2.07,2.07,0,0,1,1.36-.6h8.29a1.46,1.46,0,0,1,.56.09,1.94,1.94,0,0,1,.56.42c.74.52,1.49,1.1,2.26,1.75a10.37,10.37,0,0,0,2.78,1.67,10,10,0,0,0,3.93.69,9,9,0,0,0,4.74-1.16,3.62,3.62,0,0,0,1.93-3.29,3.86,3.86,0,0,0-.86-2.56,7.57,7.57,0,0,0-3.33-1.88,64.62,64.62,0,0,0-7.35-1.88,31.74,31.74,0,0,1-7.86-2.74,12.33,12.33,0,0,1-4.88-4.31,11.7,11.7,0,0,1-1.62-6.29,11.27,11.27,0,0,1,2.09-6.41,15.6,15.6,0,0,1,6.2-5.08,23.21,23.21,0,0,1,10.26-2,26.62,26.62,0,0,1,8.24,1.15,20.82,20.82,0,0,1,5.94,2.91,15,15,0,0,1,3.64,3.59,6.84,6.84,0,0,1,1.32,3.2,1.82,1.82,0,0,1-.51,1.54,1.89,1.89,0,0,1-1.37.6h-7.61a1.77,1.77,0,0,1-.77-.17,2.29,2.29,0,0,1-.59-.43,13,13,0,0,1-2.1-1.54,10.91,10.91,0,0,0-2.52-1.62,8.81,8.81,0,0,0-3.76-.68,6.5,6.5,0,0,0-4.23,1.23,3.9,3.9,0,0,0-1.5,3.13,3.67,3.67,0,0,0,.77,2.22,6.87,6.87,0,0,0,3.12,1.88,50.62,50.62,0,0,0,7.31,1.79,27.43,27.43,0,0,1,9.23,3.08,12.84,12.84,0,0,1,4.87,4.74,12,12,0,0,1,1.46,5.77,11.59,11.59,0,0,1-2.35,7.14,15.21,15.21,0,0,1-7,4.87A31.9,31.9,0,0,1,256.47,378.69Z" transform="translate(-78.55 -120.14)" fill="#fff"/><path d="M304.72,379.86q-9.59,0-15.21-5.73t-6-16.66v-3.56a26.12,26.12,0,0,1,3-11.55,18.13,18.13,0,0,1,7.55-7.35,24.14,24.14,0,0,1,11.37-2.56q7.38,0,12.24,3a19,19,0,0,1,7.33,8.13,26.93,26.93,0,0,1,2.47,11.81v2a2.14,2.14,0,0,1-.6,1.51,2.07,2.07,0,0,1-1.57.65H296.55v.63a15.9,15.9,0,0,0,1,5.24,8.82,8.82,0,0,0,2.71,3.8,6.75,6.75,0,0,0,4.38,1.43A7.34,7.34,0,0,0,308,370a9,9,0,0,0,2.21-1.52,10,10,0,0,0,1.29-1.48,4.29,4.29,0,0,1,1.21-1.21,3.22,3.22,0,0,1,1.37-.22h8.84a1.76,1.76,0,0,1,1.29.54,1.57,1.57,0,0,1,.46,1.34,8.24,8.24,0,0,1-1.38,3.63,16.62,16.62,0,0,1-3.79,4.12,21.48,21.48,0,0,1-6.21,3.35A24.89,24.89,0,0,1,304.72,379.86Zm-7.17-28.33h17v-.26a13.15,13.15,0,0,0-1-5.32,8.19,8.19,0,0,0-2.92-3.59,8.09,8.09,0,0,0-4.62-1.3,7.9,7.9,0,0,0-4.58,1.3,8.23,8.23,0,0,0-2.87,3.59,13.15,13.15,0,0,0-1,5.32Z" transform="translate(-78.55 -120.14)" fill="#fff"/><path d="M338.64,378.53a2,2,0,0,1-1.46-.6,2,2,0,0,1-.63-1.55V335.69a2.22,2.22,0,0,1,2.17-2.16h7.61a2.1,2.1,0,0,1,1.6.66,2.21,2.21,0,0,1,.62,1.55v3.53a15,15,0,0,1,5.51-4.24,17.75,17.75,0,0,1,7.46-1.5h3.81a2.18,2.18,0,0,1,1.6.62,2.12,2.12,0,0,1,.62,1.59v7.67a2,2,0,0,1-.62,1.5,2.18,2.18,0,0,1-1.6.62h-7.94a7.65,7.65,0,0,0-5.8,2.15,8.26,8.26,0,0,0-2,5.93v22.77a2.08,2.08,0,0,1-2.08,2.15Z" transform="translate(-78.55 -120.14)" fill="#fff"/><path d="M395.7,378.53a21.39,21.39,0,0,1-9.28-1.83,12.6,12.6,0,0,1-5.84-5.68,20.6,20.6,0,0,1-2-9.66V343.53h-6.81a2.14,2.14,0,0,1-1.58-.61,2,2,0,0,1-.61-1.47v-5.81a2,2,0,0,1,.61-1.52,2.21,2.21,0,0,1,1.58-.59h6.81V319.64a1.94,1.94,0,0,1,.66-1.52,2.22,2.22,0,0,1,1.53-.59h8.73a2.07,2.07,0,0,1,1.48.59,2,2,0,0,1,.6,1.52v13.89h10.84a2.18,2.18,0,0,1,1.56.59,2,2,0,0,1,.6,1.52v5.83a2,2,0,0,1-.6,1.46,2.14,2.14,0,0,1-1.56.6H391.55v17a9.25,9.25,0,0,0,1.22,5.12,4.5,4.5,0,0,0,4.07,1.85h6.51a2.12,2.12,0,0,1,1.59.63,2.07,2.07,0,0,1,.61,1.52v6.61a2.18,2.18,0,0,1-.61,1.61,2.12,2.12,0,0,1-1.59.63Z" transform="translate(-78.55 -120.14)" fill="#fff"/><rect x="54.98" width="38.03" height="206.73" fill="#ffcf03"/><path d="M164.5,140.59l-7.12-7.12,6.12-6.12-4.82-4.83-6.13,6.13-6.12-6.13-4.83,4.83,6.13,6.12-7.13,7.12v27l7.13,7.12-7.13,7.13v17.74l7.13,7.12-7.13,7.12v27l7.13,7.12-7.13,7.12v10.29l7.13,7.12-7.13,7.12v27l7.13,7.12L141.6,320l4.83,4.82,6.12-6.12,6.13,6.12L163.5,320l-6.12-6.13,7.12-7.12v-27l-7.12-7.12,7.12-7.12V255.14L157.38,248l7.12-7.12v-27l-7.12-7.12,7.12-7.12V181.88l-7.12-7.13,7.12-7.12ZM157.68,282.5v21.38L152.55,309l-5.12-5.12V282.5l5.12-5.12Zm0-24.53v4.63l-5.13,5.12-5.12-5.12V258l5.12-5.12Zm0-41.28v21.38l-5.13,5.12-5.12-5.12V216.69l5.12-5.12Zm0-32v12.09l-5.13,5.12-5.12-5.12V184.7l5.12-5.12Zm0-19.9-5.13,5.13-5.12-5.13V143.42l5.12-5.12,5.13,5.12Z" transform="translate(-78.55 -120.14)" fill="url(#linear-gradient)"/><path d="M0,88.09H106.66A6.34,6.34,0,0,1,113,94.43V111a6.34,6.34,0,0,1-6.34,6.34H0a0,0,0,0,1,0,0V88.09A0,0,0,0,1,0,88.09Z" fill="#fff"/><line x1="110.94" y1="2.38" x2="342.89" y2="2.38" fill="none" stroke="#fff" stroke-miterlimit="10" stroke-width="4"/><line x1="285.19" y1="23.75" x2="232.09" y2="23.75" fill="none" stroke="#fff" stroke-miterlimit="10" stroke-width="4"/><line x1="285.19" y1="38.56" x2="232.09" y2="38.56" fill="none" stroke="#fff" stroke-miterlimit="10" stroke-width="4"/></svg>